<svg width="116" height="172" viewBox="0 0 116 172" fill="none" xmlns="http://www.w3.org/2000/svg">
<path d="M13 77C2.7929 51.3075 3.50001 24.5 39 10.5C74.5 -3.50002 98 41 96 54.5" stroke="black" stroke-width="14" stroke-linecap="round" stroke-linejoin="round"/>
<path d="M102 165H37C32.6926 147.827 29.3945 139.676 21.5 128.5C14.703 123.463 12.0643 119.726 10 111C10.2972 101.762 15.1528 98.8563 24 98.5C33.8111 99.403 35.4148 103.524 37 106.5C38.5852 109.476 37 51 37 51C37 46 42 40 50.5 40C59 40 65.5 46 65.5 50.5L66.5 80.5C78.851 83.6164 86.1618 85.5491 98 89.5C107.872 96.5502 108.075 99.5496 109 105C107.58 128.621 105.977 141.748 102 165Z" stroke="black" stroke-width="14" stroke-linejoin="round"/>
</svg>
